<?xml version="1.0" standalone="no"?>
<!DOCTYPE svg PUBLIC "-//W3C//DTD SVG 20010904//EN"
 "http://www.w3.org/TR/2001/REC-SVG-20010904/DTD/svg10.dtd">
<svg version="1.0" xmlns="http://www.w3.org/2000/svg"
 width="500.000000pt" height="500.000000pt" viewBox="0 0 500.000000 500.000000"
 preserveAspectRatio="xMidYMid meet">
<metadata>
Created by potrace 1.14, written by Peter Selinger 2001-2017
</metadata>
<g transform="translate(0.000000,500.000000) scale(0.100000,-0.100000)"
fill="#000000" stroke="none">
<path d="M2250 4989 c-1145 -124 -2053 -993 -2225 -2129 -22 -148 -30 -429
-16 -580 56 -593 307 -1127 725 -1546 387 -386 864 -627 1406 -709 148 -22
429 -30 580 -16 593 56 1127 307 1546 725 386 387 627 864 709 1406 22 148 30
429 16 580 -47 489 -235 960 -538 1340 -89 113 -275 298 -393 392 -343 274
-760 455 -1200 523 -125 19 -487 28 -610 14z m590 -114 c745 -112 1371 -539
1745 -1189 145 -253 247 -552 292 -855 24 -162 24 -504 0 -661 -61 -396 -199
-747 -412 -1045 -302 -422 -700 -724 -1176 -890 -265 -93 -488 -129 -789 -129
-292 0 -495 32 -765 120 -808 266 -1425 970 -1589 1814 -246 1260 539 2484
1788 2791 108 26 261 51 386 63 90 8 418 -4 520 -19z"/>
<path d="M1231 3886 c-8 -10 -10 -291 -9 -1047 l3 -1034 78 -3 77 -3 0 896 c0
492 3 895 8 895 4 0 128 -185 276 -411 148 -225 277 -414 287 -420 21 -11 69
-12 85 -1 7 4 132 193 279 420 147 226 271 412 276 412 5 0 10 -566 11 -1397
l3 -1398 65 -3 c52 -2 67 0 77 14 10 14 13 122 13 485 l0 468 388 3 387 3 72
26 c174 64 290 193 338 374 20 77 20 252 0 330 -38 146 -141 278 -269 340
-119 59 -168 65 -563 65 l-353 0 0 488 c0 366 -3 491 -12 500 -17 17 -133 16
-150 -1 -7 -8 -146 -217 -308 -465 -276 -422 -296 -450 -311 -434 -9 9 -146
215 -304 457 -158 242 -292 443 -298 447 -21 14 -134 9 -146 -6z m2298 -1155
c108 -33 186 -105 239 -219 35 -75 43 -237 17 -328 -32 -111 -110 -204 -210
-250 -80 -37 -182 -45 -510 -42 l-300 3 -3 428 -2 427 354 0 c319 0 360 -2
415 -19z"/>
</g>
</svg>
